<svg version="1.1" xmlns="http://www.w3.org/2000/svg" xmlns:xlink="http://www.w3.org/1999/xlink" preserveAspectRatio="xMidYMid meet" viewBox="270.875 215.07840935100796 44 55.17159064899204" width="40" height="51.17"><defs><path d="M311.88 247.25C311.88 258.29 302.91 267.25 291.88 267.25C280.84 267.25 271.88 258.29 271.88 247.25C271.88 236.21 280.84 227.25 291.88 227.25C302.91 227.25 311.88 236.21 311.88 247.25Z" id="aaIbpjSUA"></path><path d="M304.18 229.62C299.93 226.96 295.83 225.62 291.88 225.62C287.92 225.62 283.8 226.96 279.52 229.62C286.18 222.42 290.34 217.92 292 216.12C292.05 216.07 292.13 216.07 292.18 216.12C293.78 217.92 297.78 222.42 304.18 229.62Z" id="aiZVjn00Y"></path></defs><g><g><use xlink:href="#aaIbpjSUA" opacity="1" fill="#f8bf04" fill-opacity="1"></use><g><use xlink:href="#aaIbpjSUA" opacity="1" fill-opacity="0" stroke="#715c5e" stroke-width="1" stroke-opacity="1"></use></g></g><g><use xlink:href="#aiZVjn00Y" opacity="1" fill="#ff0926" fill-opacity="1"></use><g><use xlink:href="#aiZVjn00Y" opacity="1" fill-opacity="0" stroke="#cb3b3b" stroke-width="1" stroke-opacity="1"></use></g></g></g></svg>